<?xml version="1.0" encoding="UTF-8" standalone="no"?>
<svg
   xmlns:dc="http://purl.org/dc/elements/1.1/"
   xmlns:cc="http://creativecommons.org/ns#"
   xmlns:rdf="http://www.w3.org/1999/02/22-rdf-syntax-ns#"
   xmlns:svg="http://www.w3.org/2000/svg"
   xmlns="http://www.w3.org/2000/svg"
   xmlns:xlink="http://www.w3.org/1999/xlink"
   xmlns:sodipodi="http://sodipodi.sourceforge.net/DTD/sodipodi-0.dtd"
   xmlns:inkscape="http://www.inkscape.org/namespaces/inkscape"
   width="1031.4578"
   height="349.51276"
   viewBox="0 0 272.90652 92.47525"
   version="1.1"
   id="svg8"
   inkscape:version="1.0.1 (3bc2e813f5, 2020-09-07)"
   sodipodi:docname="drawing.svg"
   inkscape:export-filename="C:\Users\carso\Desktop\github\hillgarrett.github.io\svg-logo\images\drawing.png"
   inkscape:export-xdpi="145.14285"
   inkscape:export-ydpi="145.14285">
  <defs
     id="defs2">
    <linearGradient
       inkscape:collect="always"
       id="linearGradient938">
      <stop
         style="stop-color:#e9afc6;stop-opacity:1;"
         offset="0"
         id="stop934" />
      <stop
         style="stop-color:#e9afc6;stop-opacity:0;"
         offset="1"
         id="stop936" />
    </linearGradient>
    <filter
       inkscape:collect="always"
       style="color-interpolation-filters:sRGB"
       id="filter2166"
       x="-0.01870463"
       width="1.0374093"
       y="-0.10442807"
       height="1.2088561"
       inkscape:label="Clouds"
       inkscape:menu="Overlays"
       inkscape:menu-tooltip="Airy, fluffy, sparse white clouds">
      <feGaussianBlur
         inkscape:collect="always"
         stdDeviation="1.525098"
         id="feGaussianBlur2168"
         result="fbSourceGraphic" />
      <feColorMatrix
         result="fbSourceGraphicAlpha"
         in="fbSourceGraphic"
         values="0 0 0 -1 0 0 0 0 -1 0 0 0 0 -1 0 0 0 0 1 0"
         id="feColorMatrix2277" />
      <feTurbulence
         id="feTurbulence2279"
         numOctaves="3"
         baseFrequency="0.040 0.107"
         type="fractalNoise" />
      <feColorMatrix
         id="feColorMatrix2281"
         result="result0"
         values="1 0 0 0 0 0 1 0 0 0 0 0 1 0 0 0 0 0 5 -2.7" />
      <feFlood
         id="feFlood2283"
         flood-opacity="1"
         flood-color="rgb(255,255,255)"
         result="result1" />
      <feComposite
         in2="result0"
         id="feComposite2285"
         operator="in"
         result="result2" />
      <feComposite
         in2="fbSourceGraphic"
         id="feComposite2287"
         operator="atop" />
    </filter>
    <filter
       inkscape:label="Clouds"
       inkscape:menu="Overlays"
       inkscape:menu-tooltip="Airy, fluffy, sparse white clouds"
       style="color-interpolation-filters:sRGB"
       id="filter2275">
      <feTurbulence
         numOctaves="3"
         baseFrequency="0.040 0.107"
         type="fractalNoise"
         id="feTurbulence2265" />
      <feColorMatrix
         result="result0"
         values="1 0 0 0 0 0 1 0 0 0 0 0 1 0 0 0 0 0 5 -2.7"
         id="feColorMatrix2267" />
      <feFlood
         flood-opacity="1"
         flood-color="rgb(255,255,255)"
         id="feFlood2269" />
      <feComposite
         operator="in"
         in2="result0"
         id="feComposite2271" />
      <feComposite
         operator="atop"
         in2="SourceGraphic"
         id="feComposite2273" />
    </filter>
    <filter
       inkscape:label="Clouds"
       inkscape:menu="Overlays"
       inkscape:menu-tooltip="Airy, fluffy, sparse white clouds"
       style="color-interpolation-filters:sRGB"
       id="filter2299">
      <feTurbulence
         numOctaves="3"
         baseFrequency="0.040 0.107"
         type="fractalNoise"
         id="feTurbulence2289" />
      <feColorMatrix
         result="result0"
         values="1 0 0 0 0 0 1 0 0 0 0 0 1 0 0 0 0 0 5 -2.7"
         id="feColorMatrix2291" />
      <feFlood
         flood-opacity="1"
         flood-color="rgb(255,255,255)"
         id="feFlood2293" />
      <feComposite
         operator="in"
         in2="result0"
         id="feComposite2295" />
      <feComposite
         operator="atop"
         in2="SourceGraphic"
         id="feComposite2297" />
    </filter>
    <radialGradient
       inkscape:collect="always"
       xlink:href="#linearGradient938"
       id="radialGradient940"
       cx="-202.59032"
       cy="-17.372519"
       fx="-202.59032"
       fy="-17.372519"
       r="132.88487"
       gradientTransform="matrix(1,0,0,0.35236575,0,-11.251038)"
       gradientUnits="userSpaceOnUse" />
  </defs>
  <sodipodi:namedview
     id="base"
     pagecolor="#ffffff"
     bordercolor="#666666"
     borderopacity="1.0"
     inkscape:pageopacity="0.0"
     inkscape:pageshadow="2"
     inkscape:zoom="0.7"
     inkscape:cx="293.92474"
     inkscape:cy="99.031903"
     inkscape:document-units="px"
     inkscape:current-layer="layer1"
     inkscape:document-rotation="0"
     showgrid="false"
     showborder="false"
     inkscape:object-paths="true"
     inkscape:snap-intersection-paths="true"
     inkscape:snap-smooth-nodes="true"
     inkscape:snap-midpoints="false"
     inkscape:snap-object-midpoints="false"
     inkscape:snap-center="false"
     inkscape:object-nodes="false"
     inkscape:snap-others="true"
     inkscape:window-width="1920"
     inkscape:window-height="1001"
     inkscape:window-x="-9"
     inkscape:window-y="-9"
     inkscape:window-maximized="1"
     showguides="false"
     fit-margin-top="0"
     fit-margin-left="0"
     fit-margin-right="0"
     fit-margin-bottom="0"
     units="px" />
  <metadata
     id="metadata5">
    <rdf:RDF>
      <cc:Work
         rdf:about="">
        <dc:format>image/svg+xml</dc:format>
        <dc:type
           rdf:resource="http://purl.org/dc/dcmitype/StillImage" />
        <dc:title></dc:title>
      </cc:Work>
    </rdf:RDF>
  </metadata>
  <g
     inkscape:label="Layer 1"
     inkscape:groupmode="layer"
     id="layer1">
    <g
       id="g968"
       transform="translate(339.87063,63.610144)">
      <g
         id="g2754"
         transform="translate(0.2672695,-5.3453903)">
        <g
           aria-label="Leo Duis"
           transform="scale(1.1581544,0.86344273)"
           id="text888"
           style="font-style:normal;font-variant:normal;font-weight:normal;font-stretch:normal;font-size:46.917px;line-height:1.25;font-family:sans-serif;-inkscape-font-specification:'sans-serif, Normal';font-variant-ligatures:normal;font-variant-caps:normal;font-variant-numeric:normal;font-variant-east-asian:normal;fill:#e9afc6;fill-opacity:1;stroke:none;stroke-width:2.64583;stroke-miterlimit:4;stroke-dasharray:none;filter:url(#filter2275)">
          <path
             d="M -251.72512,-0.33609474 H -273.3051 V -34.447136 h 4.53592 v 30.0791116 h 17.04406 z"
             style="fill:#e9afc6;stroke-width:2.64583;stroke-miterlimit:4;stroke-dasharray:none"
             id="path2170" />
          <path
             d="m -226.1132,-12.683879 h -18.85385 q 0,2.359595 0.71017,4.1235641 0.71017,1.7410605 1.94724,2.8635864 1.19125,1.0996172 2.81777,1.6494258 1.64942,0.5498086 3.61957,0.5498086 2.61159,0 5.24609,-1.0308911 2.65741,-1.0537998 3.77993,-2.0617823 h 0.22909 v 4.6962818 q -2.17633,0.91634761 -4.44429,1.53488227 -2.26796,0.61853467 -4.765,0.61853467 -6.36862,0 -9.94238,-3.43630374 -3.57375,-3.4592123 -3.57375,-9.8049195 0,-6.276982 3.41339,-9.965281 3.43631,-3.688299 9.02603,-3.688299 5.17736,0 7.97222,3.023947 2.81777,3.023947 2.81777,8.590759 z m -4.19229,-3.298852 q -0.0229,-3.390486 -1.71815,-5.24609 -1.67234,-1.855604 -5.10864,-1.855604 -3.45921,0 -5.52099,2.038873 -2.03888,2.038874 -2.31378,5.062821 z"
             style="fill:#e9afc6;stroke-width:2.64583;stroke-miterlimit:4;stroke-dasharray:none"
             id="path2172" />
          <path
             d="m -197.77515,-13.119144 q 0,6.2540722 -3.20722,9.8736455 -3.20721,3.61957319 -8.59075,3.61957319 -5.42936,0 -8.63658,-3.61957319 -3.18431,-3.6195733 -3.18431,-9.8736455 0,-6.254073 3.18431,-9.873646 3.20722,-3.642482 8.63658,-3.642482 5.38354,0 8.59075,3.642482 3.20722,3.619573 3.20722,9.873646 z m -4.44428,0 q 0,-4.971187 -1.94724,-7.376599 -1.94724,-2.428321 -5.40645,-2.428321 -3.50503,0 -5.45227,2.428321 -1.92433,2.405412 -1.92433,7.376599 0,4.8108247 1.94724,7.307872 1.94723,2.4741387 5.42936,2.4741387 3.4363,0 5.38354,-2.45123 1.97015,-2.4741386 1.97015,-7.3307807 z"
             style="fill:#e9afc6;stroke-width:2.64583;stroke-miterlimit:4;stroke-dasharray:none"
             id="path2174" />
          <path
             d="m -145.4517,-17.357252 q 0,4.650464 -2.03887,8.430398 -2.01597,3.7799341 -5.38354,5.864625 -2.33669,1.4432475 -5.22319,2.08469091 -2.86358,0.64144335 -7.55986,0.64144335 h -8.61367 V -34.447136 h 8.52203 q 4.9941,0 7.92641,0.733078 2.95522,0.710169 4.99409,1.970147 3.48212,2.176326 5.42936,5.795899 1.94724,3.619574 1.94724,8.59076 z m -4.7421,-0.06873 q 0,-4.009021 -1.39743,-6.758064 -1.39743,-2.749043 -4.16938,-4.329743 -2.01596,-1.145435 -4.28392,-1.5807 -2.26796,-0.458174 -5.42936,-0.458174 h -4.26102 v 26.3220867 h 4.26102 q 3.27594,0 5.70426,-0.4810825 2.45123,-0.4810825 4.4901,-1.7868779 2.54287,-1.6265171 3.80285,-4.2839253 1.28288,-2.657408 1.28288,-6.64352 z"
             style="fill:#e9afc6;stroke-width:2.64583;stroke-miterlimit:4;stroke-dasharray:none"
             id="path2176" />
          <path
             d="m -117.2511,-0.33609474 h -4.30683 V -3.1767725 q -2.17633,1.7181519 -4.16938,2.63449954 -1.99306,0.91634765 -4.39847,0.91634765 -4.03193,0 -6.27698,-2.45122999 -2.24505,-2.4741386 -2.24505,-7.2391464 V -25.925103 h 4.30683 v 14.569928 q 0,1.9472385 0.18327,3.3446687 0.18327,1.3745215 0.7789,2.3595952 0.61853,1.0079824 1.6036,1.4661562 0.98508,0.4581738 2.86359,0.4581738 1.67233,0 3.64248,-0.8705302 1.99306,-0.8705303 3.71121,-2.2221431 V -25.925103 h 4.30683 z"
             style="fill:#e9afc6;stroke-width:2.64583;stroke-miterlimit:4;stroke-dasharray:none"
             id="path2178" />
          <path
             d="m -104.14732,-30.209028 h -4.85664 v -4.467195 h 4.85664 z m -0.27491,29.87293326 h -4.30683 V -25.925103 h 4.30683 z"
             style="fill:#e9afc6;stroke-width:2.64583;stroke-miterlimit:4;stroke-dasharray:none"
             id="path2180" />
          <path
             d="m -77.619062,-7.7126933 q 0,3.5050297 -2.909404,5.7500815 -2.886495,2.24505173 -7.903498,2.24505173 -2.840678,0 -5.223182,-0.66435205 -2.359595,-0.68726078 -3.963204,-1.48906498 v -4.8337338 h 0.229087 q 2.038874,1.5348823 4.535921,2.4512299 2.497048,0.893439 4.787917,0.893439 2.840677,0 4.444286,-0.9163476 1.603608,-0.9163477 1.603608,-2.8864951 0,-1.5119737 -0.87053,-2.2908692 -0.87053,-0.7788951 -3.344669,-1.3287041 -0.916348,-0.206178 -2.405413,-0.481082 -1.466156,-0.274905 -2.680317,-0.595626 -3.367577,-0.893439 -4.787916,-2.611591 -1.39743,-1.741061 -1.39743,-4.261017 0,-1.5807 0.641443,-2.97813 0.664352,-1.39743 1.993056,-2.497047 1.282887,-1.076709 3.253035,-1.695243 1.993056,-0.641444 4.444286,-0.641444 2.290869,0 4.627555,0.572718 2.359595,0.549808 3.917386,1.351612 v 4.604647 h -0.229086 q -1.649426,-1.21416 -4.009021,-2.038873 -2.359596,-0.847622 -4.627556,-0.847622 -2.359595,0 -3.986112,0.916348 -1.626517,0.893439 -1.626517,2.680317 0,1.5807 0.985073,2.382504 0.962165,0.801804 3.115582,1.305795 1.191252,0.274904 2.657409,0.549809 1.489064,0.274904 2.474138,0.503991 3.001039,0.687261 4.627556,2.359595 1.626517,1.695243 1.626517,4.4901037 z"
             style="fill:#e9afc6;stroke-width:2.64583;stroke-miterlimit:4;stroke-dasharray:none"
             id="path2182" />
        </g>
        <g
           aria-label="Leo Duis"
           transform="matrix(1.1581544,0,0,0.86344273,-0.94492659,1.1339291)"
           id="text884"
           style="font-style:normal;font-variant:normal;font-weight:normal;font-stretch:normal;font-size:46.917px;line-height:1.25;font-family:sans-serif;-inkscape-font-specification:'sans-serif, Normal';font-variant-ligatures:normal;font-variant-caps:normal;font-variant-numeric:normal;font-variant-east-asian:normal;fill:#e9afc6;fill-opacity:1;stroke:#ffaaaa;stroke-width:1.5875;stroke-linecap:round;stroke-linejoin:round;stroke-miterlimit:4;stroke-dasharray:none;filter:url(#filter2166)">
          <path
             d="M -251.72512,-0.33609474 H -273.3051 V -34.447136 h 4.53592 v 30.0791116 h 17.04406 z"
             style="fill:#e9afc6;stroke:#ffaaaa;stroke-width:1.5875;stroke-linecap:round;stroke-linejoin:round;stroke-miterlimit:4;stroke-dasharray:none"
             id="path2185" />
          <path
             d="m -226.1132,-12.683879 h -18.85385 q 0,2.359595 0.71017,4.1235641 0.71017,1.7410605 1.94724,2.8635864 1.19125,1.0996172 2.81777,1.6494258 1.64942,0.5498086 3.61957,0.5498086 2.61159,0 5.24609,-1.0308911 2.65741,-1.0537998 3.77993,-2.0617823 h 0.22909 v 4.6962818 q -2.17633,0.91634761 -4.44429,1.53488227 -2.26796,0.61853467 -4.765,0.61853467 -6.36862,0 -9.94238,-3.43630374 -3.57375,-3.4592123 -3.57375,-9.8049195 0,-6.276982 3.41339,-9.965281 3.43631,-3.688299 9.02603,-3.688299 5.17736,0 7.97222,3.023947 2.81777,3.023947 2.81777,8.590759 z m -4.19229,-3.298852 q -0.0229,-3.390486 -1.71815,-5.24609 -1.67234,-1.855604 -5.10864,-1.855604 -3.45921,0 -5.52099,2.038873 -2.03888,2.038874 -2.31378,5.062821 z"
             style="fill:#e9afc6;stroke:#ffaaaa;stroke-width:1.5875;stroke-linecap:round;stroke-linejoin:round;stroke-miterlimit:4;stroke-dasharray:none"
             id="path2187" />
          <path
             d="m -197.77515,-13.119144 q 0,6.2540722 -3.20722,9.8736455 -3.20721,3.61957319 -8.59075,3.61957319 -5.42936,0 -8.63658,-3.61957319 -3.18431,-3.6195733 -3.18431,-9.8736455 0,-6.254073 3.18431,-9.873646 3.20722,-3.642482 8.63658,-3.642482 5.38354,0 8.59075,3.642482 3.20722,3.619573 3.20722,9.873646 z m -4.44428,0 q 0,-4.971187 -1.94724,-7.376599 -1.94724,-2.428321 -5.40645,-2.428321 -3.50503,0 -5.45227,2.428321 -1.92433,2.405412 -1.92433,7.376599 0,4.8108247 1.94724,7.307872 1.94723,2.4741387 5.42936,2.4741387 3.4363,0 5.38354,-2.45123 1.97015,-2.4741386 1.97015,-7.3307807 z"
             style="fill:#e9afc6;stroke:#ffaaaa;stroke-width:1.5875;stroke-linecap:round;stroke-linejoin:round;stroke-miterlimit:4;stroke-dasharray:none"
             id="path2189" />
          <path
             d="m -145.4517,-17.357252 q 0,4.650464 -2.03887,8.430398 -2.01597,3.7799341 -5.38354,5.864625 -2.33669,1.4432475 -5.22319,2.08469091 -2.86358,0.64144335 -7.55986,0.64144335 h -8.61367 V -34.447136 h 8.52203 q 4.9941,0 7.92641,0.733078 2.95522,0.710169 4.99409,1.970147 3.48212,2.176326 5.42936,5.795899 1.94724,3.619574 1.94724,8.59076 z m -4.7421,-0.06873 q 0,-4.009021 -1.39743,-6.758064 -1.39743,-2.749043 -4.16938,-4.329743 -2.01596,-1.145435 -4.28392,-1.5807 -2.26796,-0.458174 -5.42936,-0.458174 h -4.26102 v 26.3220867 h 4.26102 q 3.27594,0 5.70426,-0.4810825 2.45123,-0.4810825 4.4901,-1.7868779 2.54287,-1.6265171 3.80285,-4.2839253 1.28288,-2.657408 1.28288,-6.64352 z"
             style="fill:#e9afc6;stroke:#ffaaaa;stroke-width:1.5875;stroke-linecap:round;stroke-linejoin:round;stroke-miterlimit:4;stroke-dasharray:none"
             id="path2191" />
          <path
             d="m -117.2511,-0.33609474 h -4.30683 V -3.1767725 q -2.17633,1.7181519 -4.16938,2.63449954 -1.99306,0.91634765 -4.39847,0.91634765 -4.03193,0 -6.27698,-2.45122999 -2.24505,-2.4741386 -2.24505,-7.2391464 V -25.925103 h 4.30683 v 14.569928 q 0,1.9472385 0.18327,3.3446687 0.18327,1.3745215 0.7789,2.3595952 0.61853,1.0079824 1.6036,1.4661562 0.98508,0.4581738 2.86359,0.4581738 1.67233,0 3.64248,-0.8705302 1.99306,-0.8705303 3.71121,-2.2221431 V -25.925103 h 4.30683 z"
             style="fill:#e9afc6;stroke:#ffaaaa;stroke-width:1.5875;stroke-linecap:round;stroke-linejoin:round;stroke-miterlimit:4;stroke-dasharray:none"
             id="path2193" />
          <path
             d="m -104.14732,-30.209028 h -4.85664 v -4.467195 h 4.85664 z m -0.27491,29.87293326 h -4.30683 V -25.925103 h 4.30683 z"
             style="fill:#e9afc6;stroke:#ffaaaa;stroke-width:1.5875;stroke-linecap:round;stroke-linejoin:round;stroke-miterlimit:4;stroke-dasharray:none"
             id="path2195" />
          <path
             d="m -77.619062,-7.7126933 q 0,3.5050297 -2.909404,5.7500815 -2.886495,2.24505173 -7.903498,2.24505173 -2.840678,0 -5.223182,-0.66435205 -2.359595,-0.68726078 -3.963204,-1.48906498 v -4.8337338 h 0.229087 q 2.038874,1.5348823 4.535921,2.4512299 2.497048,0.893439 4.787917,0.893439 2.840677,0 4.444286,-0.9163476 1.603608,-0.9163477 1.603608,-2.8864951 0,-1.5119737 -0.87053,-2.2908692 -0.87053,-0.7788951 -3.344669,-1.3287041 -0.916348,-0.206178 -2.405413,-0.481082 -1.466156,-0.274905 -2.680317,-0.595626 -3.367577,-0.893439 -4.787916,-2.611591 -1.39743,-1.741061 -1.39743,-4.261017 0,-1.5807 0.641443,-2.97813 0.664352,-1.39743 1.993056,-2.497047 1.282887,-1.076709 3.253035,-1.695243 1.993056,-0.641444 4.444286,-0.641444 2.290869,0 4.627555,0.572718 2.359595,0.549808 3.917386,1.351612 v 4.604647 h -0.229086 q -1.649426,-1.21416 -4.009021,-2.038873 -2.359596,-0.847622 -4.627556,-0.847622 -2.359595,0 -3.986112,0.916348 -1.626517,0.893439 -1.626517,2.680317 0,1.5807 0.985073,2.382504 0.962165,0.801804 3.115582,1.305795 1.191252,0.274904 2.657409,0.549809 1.489064,0.274904 2.474138,0.503991 3.001039,0.687261 4.627556,2.359595 1.626517,1.695243 1.626517,4.4901037 z"
             style="fill:#e9afc6;stroke:#ffaaaa;stroke-width:1.5875;stroke-linecap:round;stroke-linejoin:round;stroke-miterlimit:4;stroke-dasharray:none"
             id="path2197" />
        </g>
        <g
           aria-label="Leo Duis"
           transform="scale(1.1581544,0.86344273)"
           id="text878"
           style="font-style:normal;font-variant:normal;font-weight:normal;font-stretch:normal;font-size:46.917px;line-height:1.25;font-family:sans-serif;-inkscape-font-specification:'sans-serif, Normal';font-variant-ligatures:normal;font-variant-caps:normal;font-variant-numeric:normal;font-variant-east-asian:normal;fill:#e9afc6;fill-opacity:1;stroke:none;stroke-width:1.17293;filter:url(#filter2299)">
          <path
             d="m -252.541,0.97716963 h -21.57999 V -33.133872 h 4.53592 V -3.05476 h 17.04407 z"
             style="fill:#e9afc6;stroke-width:1.17293"
             id="path2200" />
          <path
             d="m -226.92909,-11.370615 h -18.85385 q 0,2.3595952 0.71017,4.1235645 0.71017,1.7410605 1.94724,2.8635864 1.19125,1.0996171 2.81777,1.6494257 1.64942,0.5498086 3.61957,0.5498086 2.61159,0 5.24609,-1.0308911 2.65741,-1.0537998 3.77994,-2.0617822 h 0.22908 v 4.69628172 q -2.17632,0.91634766 -4.44428,1.53488232 -2.26796,0.61853466 -4.76501,0.61853466 -6.36862,0 -9.94237,-3.4363037 -3.57376,-3.4592124 -3.57376,-9.8049199 0,-6.276981 3.4134,-9.965281 3.4363,-3.688299 9.02602,-3.688299 5.17736,0 7.97222,3.023947 2.81777,3.023948 2.81777,8.590759 z m -4.19229,-3.298852 q -0.0229,-3.390486 -1.71815,-5.24609 -1.67233,-1.855604 -5.10864,-1.855604 -3.45921,0 -5.52099,2.038874 -2.03887,2.038873 -2.31378,5.06282 z"
             style="fill:#e9afc6;stroke-width:1.17293"
             id="path2202" />
          <path
             d="m -198.59104,-11.80588 q 0,6.2540726 -3.20721,9.8736458 -3.20722,3.6195733 -8.59076,3.6195733 -5.42936,0 -8.63658,-3.6195733 -3.18431,-3.6195732 -3.18431,-9.8736458 0,-6.254073 3.18431,-9.873646 3.20722,-3.642482 8.63658,-3.642482 5.38354,0 8.59076,3.642482 3.20721,3.619573 3.20721,9.873646 z m -4.44428,0 q 0,-4.971186 -1.94724,-7.376599 -1.94724,-2.428321 -5.40645,-2.428321 -3.50503,0 -5.45227,2.428321 -1.92433,2.405413 -1.92433,7.376599 0,4.8108251 1.94724,7.3078724 1.94724,2.4741387 5.42936,2.4741387 3.4363,0 5.38354,-2.45123 1.97015,-2.4741387 1.97015,-7.3307811 z"
             style="fill:#e9afc6;stroke-width:1.17293"
             id="path2204" />
          <path
             d="m -146.26759,-16.043988 q 0,4.650464 -2.03887,8.4303984 -2.01596,3.7799341 -5.38354,5.864625 -2.33669,1.44324752 -5.22318,2.08469088 -2.86359,0.64144335 -7.55987,0.64144335 h -8.61367 V -33.133872 h 8.52203 q 4.9941,0 7.92641,0.733078 2.95522,0.71017 4.9941,1.970148 3.48212,2.176326 5.42936,5.795899 1.94723,3.619573 1.94723,8.590759 z m -4.74209,-0.06873 q 0,-4.009021 -1.39743,-6.758064 -1.39743,-2.749043 -4.16939,-4.329743 -2.01596,-1.145434 -4.28392,-1.580699 -2.26796,-0.458174 -5.42936,-0.458174 h -4.26102 v 26.3220861 h 4.26102 q 3.27594,0 5.70426,-0.4810825 2.45123,-0.4810825 4.49011,-1.7868779 2.54286,-1.6265171 3.80284,-4.2839253 1.28289,-2.6574084 1.28289,-6.6435204 z"
             style="fill:#e9afc6;stroke-width:1.17293"
             id="path2206" />
          <path
             d="m -118.06698,0.97716963 h -4.30684 V -1.8635081 q -2.17632,1.71815186 -4.16938,2.63449951 -1.99306,0.91634769 -4.39847,0.91634769 -4.03193,0 -6.27698,-2.45123001 -2.24505,-2.47413869 -2.24505,-7.23914649 V -24.611839 h 4.30683 v 14.569928 q 0,1.9472389 0.18327,3.344669 0.18327,1.3745215 0.7789,2.3595952 0.61853,1.0079825 1.60361,1.4661563 0.98507,0.4581738 2.86358,0.4581738 1.67234,0 3.64248,-0.8705303 1.99306,-0.8705302 3.71121,-2.222143 v -19.105849 h 4.30684 z"
             style="fill:#e9afc6;stroke-width:1.17293"
             id="path2208" />
          <path
             d="m -104.96321,-28.895764 h -4.85664 v -4.467195 h 4.85664 z m -0.2749,29.87293363 h -4.30684 V -24.611839 h 4.30684 z"
             style="fill:#e9afc6;stroke-width:1.17293"
             id="path2210" />
          <path
             d="m -78.43495,-6.399429 q 0,3.5050298 -2.909403,5.75008155 -2.886495,2.24505175 -7.903499,2.24505175 -2.840678,0 -5.223181,-0.66435205 -2.359596,-0.68726074 -3.963204,-1.48906494 V -5.3914466 h 0.229087 q 2.038873,1.5348824 4.535921,2.45123 2.497047,0.893439 4.787916,0.893439 2.840678,0 4.444286,-0.9163477 1.603609,-0.9163476 1.603609,-2.8864951 0,-1.5119736 -0.870531,-2.2908691 -0.87053,-0.7788955 -3.344668,-1.3287041 -0.916348,-0.2061782 -2.405413,-0.4810825 -1.466156,-0.2749039 -2.680317,-0.5956259 -3.367578,-0.893439 -4.787916,-2.611591 -1.397431,-1.74106 -1.397431,-4.261016 0,-1.5807 0.641444,-2.97813 0.664352,-1.397431 1.993056,-2.497048 1.282887,-1.076708 3.253034,-1.695243 1.993056,-0.641443 4.444286,-0.641443 2.290869,0 4.627556,0.572717 2.359595,0.549809 3.917386,1.351613 v 4.604647 h -0.229087 q -1.649426,-1.214161 -4.009021,-2.038874 -2.359595,-0.847621 -4.627556,-0.847621 -2.359595,0 -3.986112,0.916347 -1.626517,0.893439 -1.626517,2.680317 0,1.5807 0.985074,2.382504 0.962165,0.801804 3.115582,1.305796 1.191252,0.274904 2.657408,0.549808 1.489065,0.274904 2.474139,0.503991 3.001038,0.687261 4.627555,2.359596 1.626517,1.6952427 1.626517,4.490103 z"
             style="fill:#e9afc6;stroke-width:1.17293"
             id="path2212" />
        </g>
      </g>
      <ellipse
         style="opacity:0.495082;fill:url(#radialGradient940);fill-opacity:1;stroke:none;stroke-width:1.1729;stroke-linecap:round;stroke-linejoin:round;stroke-miterlimit:4;stroke-dasharray:none"
         id="path918"
         cx="-202.59032"
         cy="-17.372519"
         rx="132.29842"
         ry="46.237625" />
    </g>
  </g>
</svg>
